<svg width="3395" height="3395" viewBox="0 0 3395 3395" fill="none" xmlns="http://www.w3.org/2000/svg">
<path d="M0 1000C0 447.715 447.715 0 1000 0H2395C2947.28 0 3395 447.715 3395 1000V2395C3395 2947.28 2947.28 3395 2395 3395H1000C447.715 3395 0 2947.28 0 2395V1000Z" fill="black"/>
<path d="M2520.8 1340.9H2026.3C1998.7 1127 1794 1104 1614.6 1104C1430.6 1104 1311 1186.8 1311 1297.2C1311 1384.6 1384.6 1432.9 1499.6 1451.3L2058.5 1541C2357.5 1589.3 2585.2 1702 2585.2 2001C2585.2 2306.9 2378.2 2553 1731.9 2553C1331.7 2553 811.9 2502.4 807.3 1989.5H1308.7C1313.3 2214.9 1538.7 2254 1731.9 2254C1941.2 2254 2083.8 2191.9 2083.8 2049.3C2083.8 1922.8 1982.6 1888.3 1805.5 1860.7L1398.4 1798.6C1113.2 1754.9 837.2 1669.8 837.2 1334C837.2 968.3 1136.2 818.8 1651.4 818.8C1989.5 818.8 2490.9 876.3 2520.8 1340.9Z" fill="white"/>
</svg>
