<svg width="3395" height="3395" viewBox="0 0 3395 3395" fill="none" xmlns="http://www.w3.org/2000/svg">
<path d="M0 1000C0 447.715 447.715 0 1000 0H2395C2947.28 0 3395 447.715 3395 1000V2395C3395 2947.28 2947.28 3395 2395 3395H1000C447.715 3395 0 2947.28 0 2395V1000Z" fill="white"/>
<path d="M2520.8 1400.9H2026.3C1998.7 1187 1794 1164 1614.6 1164C1430.6 1164 1311 1246.8 1311 1357.2C1311 1444.6 1384.6 1492.9 1499.6 1511.3L2058.5 1601C2357.5 1649.3 2585.2 1762 2585.2 2061C2585.2 2366.9 2378.2 2613 1731.9 2613C1331.7 2613 811.9 2562.4 807.3 2049.5H1308.7C1313.3 2274.9 1538.7 2314 1731.9 2314C1941.2 2314 2083.8 2251.9 2083.8 2109.3C2083.8 1982.8 1982.6 1948.3 1805.5 1920.7L1398.4 1858.6C1113.2 1814.9 837.2 1729.8 837.2 1394C837.2 1028.3 1136.2 878.8 1651.4 878.8C1989.5 878.8 2490.9 936.3 2520.8 1400.9Z" fill="black"/>
</svg>
